<?xml version="1.0"?>
<svg xmlns="http://www.w3.org/2000/svg" xmlns:xlink="http://www.w3.org/1999/xlink" version="1.1" id="Capa_1" x="0px" y="0px" width="512px" height="512px" viewBox="0 0 82 82" style="enable-background:new 0 0 82 82;" xml:space="preserve"><g><g>
	<g>
		<path d="M63.823,40.933h-2.995c-0.328-1.143-0.785-2.243-1.365-3.287l2.121-2.121c0.188-0.188,0.293-0.442,0.293-0.707    s-0.104-0.52-0.293-0.707l-4.768-4.766c-0.393-0.391-1.021-0.391-1.414,0l-2.119,2.121c-1.045-0.58-2.146-1.036-3.287-1.364    v-2.996c0-0.552-0.447-1-1-1h-6.74c-0.553,0-1,0.448-1,1v2.997c-1.143,0.328-2.241,0.785-3.285,1.364l-0.29-0.29v-6.32    c0-0.13-0.028-0.257-0.076-0.376c-0.021-0.048-0.056-0.086-0.081-0.13c-0.035-0.059-0.062-0.122-0.108-0.173l-9.25-10    c-0.379-0.409-1.09-0.409-1.469,0l-9.25,10c-0.047,0.051-0.074,0.115-0.109,0.174c-0.025,0.044-0.061,0.081-0.081,0.129    c-0.048,0.119-0.075,0.246-0.075,0.376v42.29c0,0.553,0.446,1,1,1h18.5c0.553,0,1-0.447,1-1v-7.715l0.29-0.291    c1.044,0.58,2.145,1.036,3.285,1.364V63.5c0,0.553,0.447,1,1,1h6.74c0.553,0,1-0.447,1-1v-2.994    c1.144-0.328,2.241-0.785,3.287-1.365l2.12,2.121c0.375,0.375,1.039,0.375,1.414,0l4.767-4.767    c0.188-0.188,0.293-0.442,0.293-0.707s-0.104-0.521-0.293-0.707l-2.121-2.121c0.58-1.044,1.037-2.146,1.365-3.286h2.995    c0.554,0,1-0.449,1-1v-6.74C64.823,41.381,64.375,40.933,63.823,40.933z M19.179,60.855v-35h4v35H19.179z M24.615,19.369h5.626    l4.15,4.486h-3.713h-6.5h-3.714L24.615,19.369z M25.179,25.856h4.5v35h-4.5V25.856z M31.679,25.856h4v5.734v27.426v1.84h-4V25.856    z M27.429,16.328l0.963,1.041h-1.927L27.429,16.328z M19.179,66.145v-3.287h5h6.5h5v3.287H19.179z M62.823,47.674h-2.771    c-0.466,0-0.866,0.319-0.974,0.771c-0.344,1.465-0.92,2.859-1.725,4.146c-0.246,0.396-0.188,0.906,0.145,1.235l1.961,1.96    l-3.354,3.353l-1.961-1.962c-0.33-0.327-0.842-0.386-1.232-0.142c-1.287,0.801-2.686,1.38-4.146,1.722    c-0.453,0.104-0.772,0.509-0.772,0.976v2.77h-4.738v-2.77c0-0.467-0.317-0.868-0.771-0.976c-1.465-0.342-2.858-0.92-4.146-1.722    c-0.202-0.125-0.433-0.172-0.657-0.145V33.712c0.226,0.028,0.455-0.018,0.657-0.143c1.288-0.801,2.682-1.379,4.146-1.72    c0.453-0.105,0.771-0.509,0.771-0.974v-2.77h4.738v2.77c0,0.465,0.319,0.869,0.772,0.974c1.465,0.341,2.858,0.919,4.146,1.72    c0.396,0.245,0.902,0.188,1.232-0.142l1.961-1.96l3.354,3.352l-1.961,1.96c-0.328,0.329-0.391,0.841-0.145,1.236    c0.805,1.286,1.381,2.681,1.725,4.145c0.104,0.453,0.508,0.773,0.974,0.773h2.771V47.674z" data-original="#000000" class="active-path" data-old_color="#000000" fill="#D32F2F"/>
		<path d="M45.625,38.102c-3.971,0-7.201,3.23-7.201,7.201c0,3.973,3.23,7.201,7.201,7.201c3.973,0,7.201-3.229,7.201-7.201    C52.826,41.332,49.596,38.102,45.625,38.102z M45.625,50.504c-2.867,0-5.201-2.333-5.201-5.201c0-2.867,2.334-5.201,5.201-5.201    s5.201,2.333,5.201,5.201C50.826,48.171,48.494,50.504,45.625,50.504z" data-original="#000000" class="active-path" data-old_color="#000000" fill="#D32F2F"/>
		<path d="M41,0C18.395,0,0,18.393,0,41c0,22.607,18.394,41,41,41c22.607,0,41-18.393,41-41C82,18.393,63.607,0,41,0z M41,80    C19.496,80,2,62.506,2,41C2,19.495,19.495,2,41,2c21.506,0,39,17.495,39,39C80,62.506,62.506,80,41,80z" data-original="#000000" class="active-path" data-old_color="#000000" fill="#D32F2F"/>
	</g>
</g></g> </svg>
